<svg xmlns="http://www.w3.org/2000/svg" width="31.502" height="27" viewBox="0 0 31.502 27"><defs><style>.a{fill:#fff;}</style></defs><g transform="translate(-2.249 -4.5)"><path class="a" d="M27.274,26.276h3.459l1.23-5.3h-4.69Z"/><path class="a" d="M27.274,31.5h.035A2.791,2.791,0,0,0,30,29.426l.422-1.821h-3.15Z"/><path class="a" d="M18.661,27.6h7.291v3.9H18.661Z"/><path class="a" d="M5.273,26.276H8.719v-5.3H4.043Z"/><path class="a" d="M10.048,13.5h7.291v6.152H10.048Z"/><path class="a" d="M18.661,13.5h7.291v6.152H18.661Z"/><path class="a" d="M6.012,29.412A2.775,2.775,0,0,0,8.691,31.5h.035V27.6H5.583Z"/><path class="a" d="M10.048,27.6h7.291v3.9H10.048Z"/><path class="a" d="M18.661,20.974h7.291v5.3H18.661Z"/><path class="a" d="M10.048,20.974h7.291v5.3H10.048Z"/><path class="a" d="M32.625,13.5H29.257V6.75a2.257,2.257,0,0,0-2.25-2.25H8.993a2.257,2.257,0,0,0-2.25,2.25V13.5H3.375a1.126,1.126,0,0,0-1.1,1.378l1.385,4.774H8.719V7.453A.987.987,0,0,1,9.7,6.469H26.3a.987.987,0,0,1,.984.984v12.2h5.063l1.378-4.774A1.126,1.126,0,0,0,32.625,13.5Z"/></g></svg>