<svg xmlns="http://www.w3.org/2000/svg" width="21.238" height="21.233" viewBox="0 0 21.238 21.233"><defs><style>.a{fill:#fff;}</style></defs><path class="a" d="M10.616,7.41a5.444,5.444,0,1,0,5.444,5.444A5.435,5.435,0,0,0,10.616,7.41Zm0,8.983a3.539,3.539,0,1,1,3.539-3.539,3.546,3.546,0,0,1-3.539,3.539Zm6.936-9.206a1.27,1.27,0,1,1-1.27-1.27A1.267,1.267,0,0,1,17.553,7.188Zm3.606,1.289a6.284,6.284,0,0,0-1.715-4.449,6.325,6.325,0,0,0-4.449-1.715c-1.753-.1-7.008-.1-8.761,0a6.316,6.316,0,0,0-4.449,1.71A6.3,6.3,0,0,0,.069,8.472c-.1,1.753-.1,7.008,0,8.761a6.284,6.284,0,0,0,1.715,4.449A6.333,6.333,0,0,0,6.234,23.4c1.753.1,7.008.1,8.761,0a6.284,6.284,0,0,0,4.449-1.715,6.325,6.325,0,0,0,1.715-4.449c.1-1.753.1-7,0-8.756ZM18.894,19.113a3.583,3.583,0,0,1-2.018,2.018c-1.4.554-4.714.426-6.259.426s-4.866.123-6.259-.426a3.583,3.583,0,0,1-2.018-2.018c-.554-1.4-.426-4.714-.426-6.259S1.789,7.988,2.339,6.6A3.583,3.583,0,0,1,4.357,4.577c1.4-.554,4.714-.426,6.259-.426s4.866-.123,6.259.426A3.583,3.583,0,0,1,18.894,6.6c.554,1.4.426,4.714.426,6.259S19.448,17.72,18.894,19.113Z" transform="translate(0.005 -2.238)"/></svg>