<svg xmlns="http://www.w3.org/2000/svg" width="18.333" height="18.333" viewBox="0 0 18.333 18.333"><defs><style>.a{fill:#dedede;}</style></defs><path class="a" d="M10.407,11.122a2.344,2.344,0,0,1,.275-.8,1.6,1.6,0,0,1,.541-.568,1.627,1.627,0,0,1,.834-.211,1.662,1.662,0,0,1,.577.119,1.478,1.478,0,0,1,.477.33,1.765,1.765,0,0,1,.312.486,1.605,1.605,0,0,1,.128.587h1.641a3.281,3.281,0,0,0-.257-1.182,2.751,2.751,0,0,0-.642-.926,2.994,2.994,0,0,0-.99-.6,3.541,3.541,0,0,0-1.274-.211,3.583,3.583,0,0,0-1.558.312,3.152,3.152,0,0,0-1.1.843,3.446,3.446,0,0,0-.651,1.247,5.368,5.368,0,0,0-.22,1.5v.247a5.367,5.367,0,0,0,.211,1.5,3.332,3.332,0,0,0,.651,1.237,3.129,3.129,0,0,0,1.1.834,3.72,3.72,0,0,0,1.558.312,3.5,3.5,0,0,0,1.21-.211,3.127,3.127,0,0,0,.99-.577,2.8,2.8,0,0,0,.678-.862,2.467,2.467,0,0,0,.275-1.054H13.532a1.305,1.305,0,0,1-.138.532,1.349,1.349,0,0,1-.33.422,1.444,1.444,0,0,1-.477.275,1.82,1.82,0,0,1-.55.092,1.557,1.557,0,0,1-.816-.211,1.6,1.6,0,0,1-.541-.568,2.4,2.4,0,0,1-.275-.807,6.178,6.178,0,0,1-.073-.917v-.248a6.107,6.107,0,0,1,.073-.926ZM12.167,3a9.167,9.167,0,1,0,9.167,9.167A9.17,9.17,0,0,0,12.167,3Zm0,16.5A7.333,7.333,0,1,1,19.5,12.167,7.343,7.343,0,0,1,12.167,19.5Z" transform="translate(-3 -3)"/></svg>