<svg xmlns="http://www.w3.org/2000/svg" width="24.259" height="19.703" viewBox="0 0 24.259 19.703"><defs><style>.a{fill:#fff;}</style></defs><path class="a" d="M21.765,8.291c.015.215.015.431.015.647A14.049,14.049,0,0,1,7.635,23.083,14.05,14.05,0,0,1,0,20.851a10.285,10.285,0,0,0,1.2.062,9.957,9.957,0,0,0,6.172-2.124,4.981,4.981,0,0,1-4.649-3.448,6.27,6.27,0,0,0,.939.077,5.258,5.258,0,0,0,1.308-.169A4.972,4.972,0,0,1,.985,10.369v-.062a5.007,5.007,0,0,0,2.247.631,4.979,4.979,0,0,1-1.539-6.65,14.132,14.132,0,0,0,10.251,5.2,5.613,5.613,0,0,1-.123-1.139,4.977,4.977,0,0,1,8.6-3.4,9.789,9.789,0,0,0,3.155-1.2A4.958,4.958,0,0,1,21.4,6.49a9.967,9.967,0,0,0,2.863-.77,10.687,10.687,0,0,1-2.494,2.571Z" transform="translate(0 -3.381)"/></svg>