<svg xmlns="http://www.w3.org/2000/svg" width="25.876" height="18.194" viewBox="0 0 25.876 18.194"><defs><style>.a{fill:#fff;}</style></defs><path class="a" d="M26.385,7.347a3.251,3.251,0,0,0-2.288-2.3C22.08,4.5,13.988,4.5,13.988,4.5s-8.092,0-10.11.544a3.251,3.251,0,0,0-2.288,2.3,34.108,34.108,0,0,0-.541,6.269,34.108,34.108,0,0,0,.541,6.269A3.2,3.2,0,0,0,3.878,22.15c2.018.544,10.11.544,10.11.544s8.092,0,10.11-.544a3.2,3.2,0,0,0,2.288-2.266,34.108,34.108,0,0,0,.541-6.269,34.108,34.108,0,0,0-.541-6.269ZM11.342,17.463V9.768L18.1,13.616l-6.763,3.847Z" transform="translate(-1.05 -4.5)"/></svg>